<svg xmlns="http://www.w3.org/2000/svg" width="200" height="200" viewBox="-75 -75 200 200" enable-background="new -75 -75 200 200"><circle fill="#008FCE" cx="25" cy="24.998" r="75"/><path fill="#E5F4FA" d="M39.312 72.449c0 3.368-2.73 6.102-6.102 6.102h-49.149c-3.37 0-6.102-2.733-6.102-6.102v-68.81c0-3.368 2.731-6.102 6.102-6.102h49.149c3.371 0 6.102 2.733 6.102 6.102v68.81z"/><path fill="#001D6C" d="M-16.541-7.885h50.355v5.422h-50.355z"/><path fill="#E5F4FA" d="M35.88-19.41c0-3.37-2.424-6.102-5.417-6.102h-43.652c-2.995 0-5.42 2.731-5.42 6.102v12.882h54.489v-12.882z"/><path fill="#001D6C" d="M-13.421-9.071c0 .281-.148.507-.33.507h-1.406c-.18 0-.33-.226-.33-.507v-10.848c0-.282.149-.509.33-.509h1.406c.181 0 .33.227.33.509v10.848zM-9.22-9.071c0 .281-.146.507-.329.507h-1.405c-.182 0-.331-.226-.331-.507v-10.848c0-.282.149-.509.331-.509h1.405c.183 0 .329.227.329.509v10.848zM-5.018-9.071c0 .281-.146.507-.329.507h-1.406c-.18 0-.329-.226-.329-.507v-10.848c0-.282.149-.509.329-.509h1.406c.183 0 .329.227.329.509v10.848zM-.814-9.071c0 .281-.148.507-.331.507h-1.405c-.182 0-.33-.226-.33-.507v-10.848c0-.282.147-.509.33-.509h1.405c.183 0 .331.227.331.509v10.848zM3.388-9.071c0 .281-.147.507-.331.507h-1.404c-.182 0-.332-.226-.332-.507v-10.848c0-.282.149-.509.332-.509h1.404c.184 0 .331.227.331.509v10.848zM7.59-9.071c0 .281-.147.507-.33.507h-1.406c-.182 0-.33-.226-.33-.507v-10.848c0-.282.148-.509.33-.509h1.406c.182 0 .33.227.33.509v10.848zM11.792-9.071c0 .281-.147.507-.329.507h-1.406c-.181 0-.329-.226-.329-.507v-10.848c0-.282.148-.509.329-.509h1.406c.182 0 .329.227.329.509v10.848zM15.994-9.071c0 .281-.147.507-.331.507h-1.404c-.182 0-.329-.226-.329-.507v-10.848c0-.282.147-.509.329-.509h1.404c.184 0 .331.227.331.509v10.848zM20.196-9.071c0 .281-.147.507-.329.507h-1.405c-.182 0-.331-.226-.331-.507v-10.848c0-.282.148-.509.331-.509h1.405c.182 0 .329.227.329.509v10.848zM24.397-9.071c0 .281-.146.507-.328.507h-1.405c-.183 0-.33-.226-.33-.507v-10.848c0-.282.147-.509.33-.509h1.405c.182 0 .328.227.328.509v10.848zM28.6-9.071c0 .281-.146.507-.328.507h-1.406c-.181 0-.329-.226-.329-.507v-10.848c0-.282.148-.509.329-.509h1.406c.182 0 .328.227.328.509v10.848zM32.803-9.071c0 .281-.148.507-.329.507h-1.406c-.181 0-.329-.226-.329-.507v-10.848c0-.282.148-.509.329-.509h1.406c.181 0 .329.227.329.509v10.848zM-22.04 10.757h61.353v52.542h-61.353z"/><path fill="#CF4D00" d="M21.413 33.37h-8.741v8.741h-8.069v-8.741h-8.743v-8.069h8.743v-8.741h8.069v8.741h8.741v8.069z"/><path fill="#008FCE" d="M-9.613 54.11h36.499v3.905h-36.499zM-9.613 48.009h36.499v3.905h-36.499z"/><path fill="#001D6C" d="M56.021 83.099l-1.32 2.366-1.045-2.403.592-38.449 2.365.037zM59.841 36.936l-4.202-.066-.179-.003-4.201-.064s-.86 11.32 1.603 12.252c.741.281 1.44.422 2.1.478.155.015.632.021.789.015.658-.038 1.362-.158 2.112-.413 2.491-.862 1.978-12.199 1.978-12.199zM51.848-32.373l9.54.147-.308 20.026-9.54-.147zM48.568-32.427l16.1.248-.05 3.23-16.1-.248z"/><path fill="#E5F4FA" d="M66.317 34.699c-.078 5.348-4.952 9.613-10.881 9.523-5.927-.092-10.666-4.505-10.584-9.856l.594-38.511.073-4.719 21.468.33-.083 5.318-.587 37.915z"/><path fill="#49A942" d="M66.283 37.081c-.083 5.354-4.918 7.231-10.847 7.142-5.927-.092-10.702-2.118-10.619-7.471l.408-26.585.071-4.719 21.469.33-.082 5.317-.4 25.986z"/><g fill="#001D6C"><path d="M55.084 9.959c-.259-.004-.465-.112-.462-.242l.015-.995c.002-.129.212-.232.469-.227l9.975.152c.259.006.466.112.466.242l-.017.996c-.003.132-.213.231-.472.229l-9.974-.155zM59.371 14.418c-.151-.001-.273-.108-.27-.237l.015-.996c.002-.131.126-.232.276-.23l5.816.09c.149.003.27.107.268.237l-.014.998c-.004.128-.126.231-.277.229l-5.814-.091zM54.95 18.743c-.259-.004-.468-.112-.465-.239l.015-.999c.003-.129.215-.23.474-.226l9.973.153c.259.003.466.111.463.241l-.015.996c-.002.13-.213.233-.471.228l-9.974-.154zM59.235 23.2c-.151-.001-.272-.106-.271-.235l.016-.998c.001-.13.127-.233.275-.229l5.815.088c.151.002.272.11.271.239l-.017.996c.001.13-.125.232-.273.23l-5.816-.091zM54.813 27.527c-.258-.006-.464-.114-.463-.242l.014-.997c.002-.128.213-.229.472-.226l9.976.152c.257.004.464.112.462.241l-.017.997c0 .128-.21.23-.469.228l-9.975-.153zM59.099 31.985c-.151-.003-.271-.109-.268-.238l.014-.996c.003-.128.126-.232.277-.231l5.815.092c.15.002.271.109.269.236l-.017.997c-.002.13-.124.233-.275.229l-5.815-.089z"/></g><path fill="#fff" d="M42.968-13.326l26.71.414-.1 6.459-26.71-.414z"/></svg>